<svg xmlns="http://www.w3.org/2000/svg" width="73" height="32" viewBox="0 0 73 32">
    <g fill="none" fill-rule="evenodd">
        <path fill="#231F20" fill-rule="nonzero" d="M54.9 31.331v.099h.074a.066.066 0 0 0 .04-.013.048.048 0 0 0 .015-.037.046.046 0 0 0-.015-.037.06.06 0 0 0-.04-.013H54.9v.001zm.075-.056a.137.137 0 0 1 .089.026c.02.017.032.043.03.07a.08.08 0 0 1-.024.061.122.122 0 0 1-.071.03l.099.113h-.076l-.092-.112h-.03v.112h-.063v-.3h.139-.001zm-.02.404a.255.255 0 0 0 .23-.153.257.257 0 0 0 0-.197.26.26 0 0 0-.133-.133.26.26 0 0 0-.197 0 .253.253 0 0 0-.08.054.256.256 0 0 0 0 .357.254.254 0 0 0 .18.074v-.002zm0-.574a.332.332 0 0 1 .303.199.32.32 0 0 1-.174.423.33.33 0 0 1-.433-.176.32.32 0 0 1 .175-.423.33.33 0 0 1 .13-.026l-.001.003zm-30.38-1.159c0-.572.374-1.043.987-1.043.586 0 .981.45.981 1.043s-.395 1.043-.98 1.043c-.614 0-.989-.47-.989-1.043zm2.636 0v-1.629h-.708v.397c-.225-.293-.565-.477-1.029-.477-.912 0-1.629.716-1.629 1.71s.716 1.71 1.63 1.71c.462 0 .803-.184 1.028-.477v.395h.707v-1.629zm23.927 0c0-.572.375-1.043.988-1.043.586 0 .98.45.98 1.043s-.394 1.043-.98 1.043c-.613 0-.988-.47-.988-1.043zm2.637 0V27.01h-.709v1.704c-.224-.293-.565-.477-1.028-.477-.913 0-1.63.716-1.63 1.71s.716 1.71 1.63 1.71c.463 0 .804-.184 1.028-.477v.395h.709v-1.629zM36 28.87c.456 0 .75.286.824.79h-1.69c.076-.47.361-.79.866-.79zm.014-.635c-.954 0-1.622.694-1.622 1.71 0 1.036.694 1.71 1.67 1.71.49 0 .94-.122 1.334-.456l-.347-.525c-.273.218-.62.34-.947.34-.456 0-.872-.21-.974-.797h2.418c.007-.088.014-.177.014-.272-.007-1.015-.635-1.71-1.546-1.71zm8.55 1.71c0-.573.374-1.043.987-1.043.586 0 .98.45.98 1.043 0 .592-.394 1.042-.98 1.042-.613 0-.988-.47-.988-1.042zm2.635 0v-1.628h-.707v.397c-.226-.293-.566-.477-1.029-.477-.913 0-1.629.716-1.629 1.71s.716 1.71 1.63 1.71c.462 0 .802-.184 1.028-.477v.395h.708v-1.63zm-6.635 0c0 .988.688 1.71 1.737 1.71.49 0 .818-.11 1.171-.388l-.34-.573a1.431 1.431 0 0 1-.853.293c-.565-.006-.981-.415-.981-1.042s.416-1.036.98-1.043c.308 0 .587.102.854.293l.34-.572c-.354-.28-.68-.388-1.17-.388-1.05 0-1.738.722-1.738 1.71zm9.129-1.71c-.409 0-.675.19-.859.477v-.395h-.701v3.256h.709v-1.825c0-.539.231-.838.694-.838.152-.002.302.025.443.082l.218-.668a1.506 1.506 0 0 0-.504-.089zm-18.981.341c-.34-.225-.81-.34-1.328-.34-.825 0-1.356.395-1.356 1.042 0 .53.395.858 1.123.96l.335.048c.388.055.572.157.572.34 0 .253-.258.396-.743.396-.49 0-.844-.157-1.083-.34l-.333.552c.389.286.88.422 1.41.422.94 0 1.486-.443 1.486-1.063 0-.572-.43-.871-1.138-.974l-.334-.048c-.306-.04-.552-.101-.552-.32 0-.238.232-.381.62-.381a2.1 2.1 0 0 1 1.016.28l.306-.573-.001-.001zm9.137-.34c-.409 0-.675.191-.858.477v-.396h-.702v3.256h.708v-1.825c0-.539.232-.838.695-.838.151-.002.302.025.443.082l.218-.668a1.506 1.506 0 0 0-.505-.089zm-6.043.081h-1.158v-.988h-.716v.988h-.66v.647h.66v1.486c0 .755.294 1.205 1.131 1.205.308 0 .662-.095.886-.251l-.204-.607a1.31 1.31 0 0 1-.627.184c-.354 0-.47-.218-.47-.545v-1.471h1.158v-.648zM23.22 31.574v-2.043c0-.77-.49-1.288-1.281-1.295-.416-.007-.844.123-1.145.58-.224-.362-.578-.58-1.076-.58-.348 0-.687.102-.954.484v-.403h-.708v3.256h.714v-1.805c0-.565.313-.866.798-.866.47 0 .708.307.708.859v1.812h.716v-1.806c0-.565.326-.865.796-.865.484 0 .715.306.715.858v1.813l.717.001z"/>
        <path fill="#F79410" fill-rule="nonzero" d="M55.304 21.266v-1h-.124l-.144.686-.142-.686h-.125v1h.088v-.753l.134.65h.092l.134-.652v.755h.087zm-.787 0v-.829h.159v-.169h-.406v.17h.159v.828h.088z"/>
        <path fill="#FF5F00" d="M41.21 22.784H30.477V3.5H41.21z"/>
        <path fill="#EB001B" d="M31.159 13.142c0-3.912 1.831-7.397 4.684-9.643a12.212 12.212 0 0 0-7.58-2.622C21.49.877 16 6.368 16 13.142c0 6.774 5.49 12.265 12.264 12.265 2.75.004 5.42-.92 7.579-2.622a12.245 12.245 0 0 1-4.684-9.643"/>
        <path fill="#F79E1B" d="M55.687 13.142c0 6.774-5.49 12.265-12.264 12.265-2.75.004-5.42-.92-7.58-2.622a12.243 12.243 0 0 0 4.685-9.643c0-3.912-1.832-7.397-4.685-9.643a12.215 12.215 0 0 1 7.58-2.622c6.773 0 12.264 5.491 12.264 12.265"/>
    </g>
</svg>
