<svg xmlns="http://www.w3.org/2000/svg" width="73" height="32" viewBox="0 0 73 32">
    <g fill="none" fill-rule="evenodd">
        <path fill="#009CDE" fill-rule="nonzero" d="M48.537 12.628c-.268 1.76-1.612 1.76-2.91 1.76h-.74l.519-3.285a.408.408 0 0 1 .403-.345h.34c.884 0 1.72 0 2.15.504.257.301.335.749.238 1.366m-.566-4.59h-4.9a.682.682 0 0 0-.674.575l-1.98 12.567a.409.409 0 0 0 .402.472h2.515c.235 0 .435-.171.471-.402l.563-3.564a.681.681 0 0 1 .672-.575h1.55c3.23 0 5.092-1.562 5.579-4.659.22-1.353.009-2.417-.625-3.162-.697-.82-1.932-1.253-3.572-1.253"/>
        <path fill="#003087" fill-rule="nonzero" d="M13.58 12.628c-.268 1.76-1.611 1.76-2.911 1.76h-.74l.52-3.285a.408.408 0 0 1 .403-.345h.339c.885 0 1.72 0 2.15.504.259.301.336.749.24 1.366m-.566-4.59H8.114a.682.682 0 0 0-.673.575L5.46 21.18a.408.408 0 0 0 .403.472h2.34c.335 0 .62-.244.673-.575l.535-3.39a.68.68 0 0 1 .672-.576h1.55c3.23 0 5.093-1.562 5.58-4.659.219-1.353.008-2.417-.626-3.162-.697-.82-1.932-1.253-3.572-1.253m11.378 9.103c-.227 1.34-1.29 2.241-2.649 2.241-.68 0-1.226-.22-1.576-.634-.347-.41-.477-.996-.367-1.648.21-1.33 1.292-2.258 2.63-2.258.666 0 1.206.221 1.564.64.36.42.501 1.01.398 1.659m3.27-4.569h-2.346a.409.409 0 0 0-.404.346l-.103.656-.164-.238c-.508-.737-1.641-.984-2.772-.984-2.593 0-4.808 1.965-5.239 4.72-.224 1.376.095 2.69.874 3.606.716.843 1.738 1.193 2.956 1.193 2.09 0 3.249-1.342 3.249-1.342l-.105.652a.408.408 0 0 0 .404.472h2.113c.335 0 .62-.243.673-.575l1.269-8.033a.409.409 0 0 0-.405-.472"/>
        <path fill="#009CDE" fill-rule="nonzero" d="M59.35 17.14c-.228 1.34-1.291 2.241-2.649 2.241-.68 0-1.226-.22-1.576-.634-.348-.41-.478-.996-.368-1.648.211-1.33 1.292-2.258 2.63-2.258.667 0 1.207.221 1.565.64.36.42.5 1.01.398 1.659m3.27-4.569h-2.346a.409.409 0 0 0-.405.346l-.102.656-.164-.238c-.508-.737-1.641-.984-2.773-.984-2.592 0-4.806 1.965-5.238 4.72-.224 1.376.095 2.69.875 3.606.716.843 1.737 1.193 2.955 1.193 2.09 0 3.25-1.342 3.25-1.342l-.105.652a.407.407 0 0 0 .402.472h2.113c.335 0 .62-.243.674-.575l1.268-8.033a.409.409 0 0 0-.404-.472"/>
        <path fill="#003087" d="M40.164 12.572h-2.36a.678.678 0 0 0-.562.299l-3.255 4.792-1.38-4.605a.682.682 0 0 0-.652-.487h-2.318a.409.409 0 0 0-.387.541l2.597 7.625-2.443 3.447a.409.409 0 0 0 .334.644h2.357c.222 0 .431-.11.559-.292l7.844-11.323a.408.408 0 0 0-.334-.641"/>
        <path fill="#009CDE" d="M65.386 8.384L63.374 21.18a.409.409 0 0 0 .404.472h2.023c.335 0 .62-.244.673-.575L68.457 8.51a.408.408 0 0 0-.403-.472H65.79a.408.408 0 0 0-.404.345"/>
    </g>
</svg>
