<svg xmlns="http://www.w3.org/2000/svg" width="73" height="32" viewBox="0 0 73 32">
    <g fill="none" fill-rule="evenodd">
        <path fill="#FFFFFE" d="M64.884 7.05H8.094c-1.667 0-3.019 1.32-3.019 2.948v10.505c0 1.628 1.352 2.948 3.018 2.948h44.543l6.168 4.523v-4.523h6.08c1.666 0 3.018-1.32 3.018-2.948V9.998c0-1.628-1.352-2.948-3.018-2.948"/>
        <path fill="#10B5C5" fill-rule="nonzero" d="M52.401 24.138H8.093c-2.055 0-3.722-1.627-3.722-3.635V9.998c0-2.008 1.667-3.635 3.722-3.635h56.79c2.056 0 3.723 1.627 3.723 3.635v10.505c0 2.008-1.667 3.635-3.722 3.635h-5.376v5.213L52.4 24.138zm5.698-1.375h6.785c1.277 0 2.313-1.012 2.313-2.26V9.998c0-1.248-1.036-2.26-2.313-2.26H8.094c-1.278 0-2.314 1.012-2.314 2.26v10.505c0 1.248 1.035 2.26 2.313 2.26h44.778l5.228 3.835v-3.835z"/>
        <path fill="#00080B" d="M14.597 18.616H11.8c-1.358 0-1.75-.816-1.75-1.73v-3.419c0-.913.493-1.739 1.75-1.739h2.757c.18 0 .21.079.21.226v.472c0 .167-.03.216-.21.216H11.8c-.503 0-.714.206-.714.678v1.334h3.139c.17 0 .2.059.2.226v.412c0 .148-.03.226-.2.226h-3.14v1.506c0 .393.202.668.715.668h2.797c.181 0 .211.059.211.226v.472c0 .147-.03.226-.211.226M16.098 15.909v-.496c0-.118.02-.177.161-.177h2.344c.141 0 .161.059.161.177v.496c0 .128-.02.177-.16.177h-2.345c-.14 0-.16-.05-.16-.177M23.089 12.652h-1.67v2.171h1.59c.955 0 1.317-.52 1.317-1.1 0-.423-.2-1.071-1.237-1.071zm-2.747-.403c0-.373.151-.53.544-.53h2.313c1.288 0 2.174.805 2.174 1.965 0 .785-.443 1.395-1.107 1.65v.05c.553.156.714.5.845.962l.583 2.073c.02.069.03.197-.14.197h-.755c-.07 0-.16-.01-.201-.138l-.513-1.857c-.212-.737-.684-.923-1.348-.923h-1.328v2.711c0 .177-.06.207-.232.207h-.603c-.151 0-.232-.03-.232-.207v-6.16zM28.773 14.155c-.825 0-1.288.717-1.328 1.415h2.595c0-.776-.241-1.415-1.267-1.415zm2.15 1.336c0 .688-.393.835-.836.845h-2.736c.02 1.14.704 1.553 1.53 1.553.442 0 .915-.138 1.186-.285.111-.05.161-.04.211.059l.242.461c.05.108.04.177-.06.226-.514.295-1.117.374-1.65.374-1.54 0-2.455-.806-2.455-2.663 0-1.72 1.026-2.712 2.354-2.712 1.52 0 2.213.855 2.213 2.142zM35.402 17.613c.13-.068.171-.02.211.06l.232.471c.07.108.03.177-.06.226-.514.285-1.188.354-1.721.354-1.459 0-2.274-.904-2.274-2.633 0-1.66.916-2.742 2.385-2.742.543 0 1.046.099 1.499.344.09.05.13.118.06.226l-.231.472c-.04.078-.07.118-.212.059a2.852 2.852 0 0 0-1.096-.236c-.996 0-1.409.884-1.409 1.877 0 .972.292 1.798 1.419 1.798.443 0 .915-.128 1.197-.276M41.187 18.458c0 .138-.06.158-.18.158h-.635c-.13 0-.18-.02-.18-.158v-2.75c0-1.022-.423-1.514-1.298-1.514-.393 0-.835.05-1.137.177v4.087c0 .138-.05.158-.181.158h-.624c-.12 0-.18-.02-.18-.158v-6.867c0-.138.06-.157.18-.157h.624c.13 0 .18.02.18.157v1.965c.403-.147.926-.207 1.309-.207 1.499 0 2.122.895 2.122 2.349v2.76M46.475 18.616h-.624c-.12 0-.18-.02-.18-.158v-2.593c0-1.12-.333-1.66-1.57-1.66-.151 0-.453 0-.865.068v4.185c0 .138-.05.158-.181.158h-.624c-.121 0-.181-.02-.181-.158v-4.205c0-.481.14-.746.704-.825.282-.04.905-.079 1.227-.079 1.73 0 2.475.708 2.475 2.486v2.623c0 .138-.05.158-.181.158M47.866 13.448h.624c.12 0 .18.02.18.157v2.594c0 1.12.232 1.66 1.47 1.66.15 0 .453 0 .865-.069v-4.185c0-.138.05-.157.181-.157h.624c.12 0 .18.02.18.157v4.205c0 .481-.23.747-.703.825a9.064 9.064 0 0 1-1.228.079c-1.73 0-2.374-.708-2.374-2.486v-2.623c0-.138.05-.157.181-.157M57.208 18.616h-.624c-.12 0-.18-.02-.18-.158v-2.593c0-1.12-.333-1.66-1.57-1.66-.151 0-.453 0-.865.068v4.185c0 .138-.05.158-.181.158h-.624c-.12 0-.181-.02-.181-.158v-4.205c0-.481.14-.746.704-.825.282-.04.905-.079 1.227-.079 1.73 0 2.475.708 2.475 2.486v2.623c0 .138-.05.158-.181.158M61.898 14.322a3.988 3.988 0 0 0-1.076-.147c-.895.01-1.509.52-1.509 1.876 0 1.228.523 1.847 1.398 1.847.242 0 .694-.03 1.187-.167v-3.409zm.865-.629c.1.04.131.099.131.197v4.293c0 1.75-.845 2.397-2.585 2.623-.1.01-.161 0-.181-.108l-.08-.619c0-.068.02-.118.11-.137 1.147-.167 1.72-.472 1.72-1.346v-.05a5.369 5.369 0 0 1-1.287.187c-1.58 0-2.284-1.08-2.284-2.623 0-1.611.774-2.75 2.485-2.75.644 0 1.378.088 1.971.333z"/>
    </g>
</svg>
