<svg xmlns="http://www.w3.org/2000/svg" width="73" height="32" viewBox="0 0 73 32">
    <g fill="none" fill-rule="evenodd">
        <g fill="#F47216">
            <path d="M57.817 7.256c.224.177.417.38.579.611.412.594.57 1.3.476 2.11h2.11l-3.18 8.741h3.177l3.183-8.741h4.083l.99-2.721H57.817z"/>
            <path fill-rule="nonzero" d="M54.574 10.911c-.34.917-.951 1.483-2.113 1.483h-.607l1.029-2.772h.585c1.069 0 1.469.313 1.106 1.29m3.084-2.532c-.523-.753-1.586-1.123-3.253-1.124h-3.858l-4.172 11.46h3.544l1.517-4.034c.074.166.969 4.034.969 4.034h3.726s-.678-2.842-1.177-3.99c-.127-.295-.261-.626-.44-.903 1.053-.39 2.578-1.23 3.21-2.932.388-1.046.365-1.89-.066-2.511"/>
            <path d="M22.042 7.25h-6.571c-1.036 0-2.043 0-2.944.456-.902.459-1.698 1.374-2.31 3.206-.133.394-.204.733-.213 1.027-.01.295.042.547.154.765.138.266.361.517.64.728.28.211.616.383.976.493l.433.123c.23.066.497.145.666.196.1.03.21.07.308.13a.548.548 0 0 1 .302.483.778.778 0 0 1-.045.274c-.084.25-.212.41-.455.508-.242.097-.6.13-1.141.133H5.08l-1.07 2.937h7.239c.681 0 1.927 0 3.123-.509 1.197-.508 2.345-1.525 2.83-3.558.183-.764.126-1.386-.173-1.875-.3-.49-.843-.843-1.634-1.07l-.385-.112-.57-.163a.765.765 0 0 1-.45-.324.64.64 0 0 1-.067-.514.751.751 0 0 1 .376-.451c.19-.105.44-.163.732-.163h4.207c.03-.043.057-.09.086-.133.77-1.087 1.7-1.967 2.718-2.588"/>
            <path fill-rule="nonzero" d="M25.129 12.926c-.983 2.688-1.696 3.365-2.768 3.365h-.002c-1.046-.001-1.412-.663-.434-3.338.73-1.997 1.676-3.275 2.82-3.275h.001c1.09.002 1.338.632.383 3.248m3.37-4.603c-.573-.82-1.553-1.236-2.917-1.237-.892 0-1.757.205-2.57.587-1.16.55-2.212 1.467-3.072 2.682a11.681 11.681 0 0 0-1.41 2.73c-.705 1.93-.698 3.498.024 4.531.409.584 1.259 1.281 2.987 1.283h.007c3.148 0 5.498-2.063 6.987-6.133.393-1.077.911-3.087-.036-4.443"/>
            <path d="M41.08 7.25h-6.697c-1.873 0-3.267.946-3.925 2.72l-3.18 8.74h3.484l1.635-4.494 3.08.002.875-2.406-3.07-.002.495-1.393c.103-.25.349-.448.71-.448l3.63.001c.03-.043.058-.09.087-.133.769-1.087 1.857-1.967 2.876-2.588"/>
            <path fill-rule="nonzero" d="M44.126 12.926c-.982 2.688-1.695 3.365-2.768 3.365h-.002c-1.046-.001-1.41-.663-.433-3.338.73-1.997 1.676-3.275 2.82-3.275h.002c1.087.002 1.337.632.38 3.248m3.371-4.603c-.573-.82-1.553-1.236-2.917-1.237-.891 0-1.757.205-2.569.587-1.16.55-2.213 1.467-3.072 2.682a11.626 11.626 0 0 0-1.41 2.73c-.706 1.93-.698 3.498.024 4.531.408.584 1.258 1.281 2.987 1.283h.006c3.15 0 5.5-2.063 6.987-6.133.394-1.077.912-3.087-.036-4.443"/>
        </g>
        <g fill="#2F2E34">
            <path fill-rule="nonzero" d="M8.033 23.105a.862.862 0 0 0 .06-.308.365.365 0 0 0-.076-.226.46.46 0 0 0-.216-.139 1.34 1.34 0 0 0-.411-.048h-.585l-.538 1.478h.647c.166 0 .307-.02.421-.06a1.085 1.085 0 0 0 .544-.404 1.25 1.25 0 0 0 .154-.293m-.592 2.437a.897.897 0 0 0 .063-.355.427.427 0 0 0-.098-.26.563.563 0 0 0-.266-.164 1.68 1.68 0 0 0-.495-.057H5.96l-.59 1.618h.836c.161 0 .303-.016.425-.05s.236-.084.34-.15a1.133 1.133 0 0 0 .47-.582m1.215-.04a2.366 2.366 0 0 1-.673.985 2.517 2.517 0 0 1-.47.326c-.17.09-.347.165-.533.224a3.518 3.518 0 0 1-.572.13 4.527 4.527 0 0 1-.638.041H4.257c-.096 0-.167-.028-.213-.086-.045-.057-.044-.15.003-.279l1.806-4.96a.542.542 0 0 1 .2-.28.494.494 0 0 1 .275-.086h1.43c.349 0 .633.03.854.088.22.06.392.148.515.267a.726.726 0 0 1 .216.45c.022.182-.012.396-.102.642a1.876 1.876 0 0 1-.47.721 1.94 1.94 0 0 1-.747.449c.15.029.28.08.39.154.11.073.195.168.253.283.059.117.09.252.091.408.003.155-.032.33-.102.523M13.087 22.604h-.004l-1.686 2.418h1.614l.076-2.418zm1.093 4.173a1.347 1.347 0 0 1-.025.25.22.22 0 0 1-.086.14.396.396 0 0 1-.192.057 6.936 6.936 0 0 1-.69.004.725.725 0 0 1-.182-.026c-.039-.013-.063-.032-.072-.055a.228.228 0 0 1-.01-.093l.033-1.143H10.82l-.766 1.113a.565.565 0 0 1-.084.103.292.292 0 0 1-.116.066.845.845 0 0 1-.193.033 4.41 4.41 0 0 1-.62-.004c-.073-.009-.118-.03-.135-.065-.017-.033-.01-.08.02-.142.032-.062.084-.144.157-.247l3.592-5.048a.755.755 0 0 1 .105-.12.343.343 0 0 1 .139-.072c.057-.016.131-.026.224-.03a9.065 9.065 0 0 1 .774 0 .961.961 0 0 1 .229.03c.05.017.083.04.096.073a.316.316 0 0 1 .016.132l-.077 5.044z"/>
            <path d="M20.073 26.804a.627.627 0 0 1-.586.413h-.492a.9.9 0 0 1-.255-.03.334.334 0 0 1-.166-.113.609.609 0 0 1-.102-.22 2.863 2.863 0 0 1-.068-.358l-.448-2.66a9.209 9.209 0 0 1-.098-1.048h-.009a29.947 29.947 0 0 1-.43 1.28l-1.084 2.978a.2.2 0 0 1-.053.079.29.29 0 0 1-.105.059.82.82 0 0 1-.175.038c-.07.008-.158.013-.264.013-.102 0-.186-.005-.25-.013a.468.468 0 0 1-.144-.038c-.033-.016-.052-.035-.058-.059a.136.136 0 0 1 .007-.08l1.861-5.114a.606.606 0 0 1 .234-.31.606.606 0 0 1 .335-.103h.62c.111 0 .201.01.27.028.07.019.127.05.17.095a.435.435 0 0 1 .103.182c.025.078.045.174.058.288l.352 2.08.056.372c.019.122.035.244.05.365a28.125 28.125 0 0 1 .075.71h.004a32.229 32.229 0 0 1 .44-1.28l.972-2.669a.186.186 0 0 1 .055-.08.342.342 0 0 1 .11-.06.693.693 0 0 1 .177-.038c.07-.008.158-.011.263-.011.1 0 .182.003.247.01.065.008.112.02.142.038.03.018.049.039.055.061a.134.134 0 0 1-.007.08l-1.862 5.115zM25.799 27.037a.23.23 0 0 1-.056.086.276.276 0 0 1-.114.061 1.034 1.034 0 0 1-.2.038 2.938 2.938 0 0 1-.305.013c-.19 0-.325-.008-.403-.022-.078-.015-.13-.037-.156-.066a.193.193 0 0 1-.048-.106l-.736-2.7-.983 2.7a.207.207 0 0 1-.057.084.306.306 0 0 1-.114.059.955.955 0 0 1-.19.038 2.6 2.6 0 0 1-.286.013c-.111 0-.203-.005-.274-.013a.628.628 0 0 1-.165-.038c-.038-.016-.062-.035-.073-.059-.01-.024-.01-.051.002-.084l1.952-5.36a.194.194 0 0 1 .058-.084.32.32 0 0 1 .116-.058c.05-.014.113-.026.191-.035.078-.009.172-.014.284-.014.114 0 .207.005.277.014.07.01.124.02.163.035.038.015.062.034.07.058.01.023.009.05-.003.083l-.882 2.424 2.547-2.42a.547.547 0 0 1 .11-.094.467.467 0 0 1 .136-.06.971.971 0 0 1 .191-.03 3.542 3.542 0 0 1 .57.004c.074.01.13.022.17.038.039.016.063.035.072.059.01.023.008.05-.003.08a.509.509 0 0 1-.095.153 5.92 5.92 0 0 1-.24.25l-2.306 2.046.765 2.573c.021.12.03.2.03.24a.298.298 0 0 1-.015.094M28.116 27.05a.186.186 0 0 1-.057.08.308.308 0 0 1-.115.056c-.05.015-.112.027-.19.036a2.59 2.59 0 0 1-.285.013c-.112 0-.203-.005-.275-.013a.715.715 0 0 1-.165-.036c-.039-.014-.064-.033-.074-.057a.102.102 0 0 1 0-.079l1.957-5.374c.01-.03.03-.056.057-.08a.32.32 0 0 1 .118-.057c.05-.014.114-.026.19-.035.077-.009.17-.014.282-.014.114 0 .207.005.277.014.07.01.125.02.163.035.038.015.064.034.073.058a.097.097 0 0 1 0 .079l-1.956 5.374zM34.552 26.804a.627.627 0 0 1-.585.413h-.493a.898.898 0 0 1-.255-.03.332.332 0 0 1-.166-.113.6.6 0 0 1-.102-.22 2.942 2.942 0 0 1-.068-.358l-.448-2.66a9.69 9.69 0 0 1-.063-.513 6.923 6.923 0 0 1-.035-.535h-.008a27.376 27.376 0 0 1-.432 1.28l-1.083 2.978a.2.2 0 0 1-.053.079.293.293 0 0 1-.105.059.81.81 0 0 1-.174.038 2.228 2.228 0 0 1-.265.013c-.102 0-.186-.005-.25-.013a.472.472 0 0 1-.145-.038c-.032-.016-.05-.035-.057-.059a.136.136 0 0 1 .007-.08l1.861-5.114a.602.602 0 0 1 .568-.413h.62c.112 0 .203.01.272.028.069.019.126.05.17.095a.43.43 0 0 1 .102.182c.025.078.044.174.058.288l.352 2.08.056.372c.018.122.035.244.05.365.014.121.028.241.04.359.014.117.025.234.036.351h.004a34.93 34.93 0 0 1 .44-1.28l.971-2.669a.186.186 0 0 1 .055-.08.342.342 0 0 1 .11-.06.693.693 0 0 1 .177-.038c.07-.008.157-.011.263-.011.1 0 .182.003.247.01.065.008.112.02.142.038.03.018.049.039.055.061a.13.13 0 0 1-.007.08l-1.862 5.115zM42.376 22.401c-.031.085-.061.159-.091.22a.963.963 0 0 1-.085.148.272.272 0 0 1-.076.077.147.147 0 0 1-.076.022c-.038 0-.09-.027-.156-.08a1.818 1.818 0 0 0-.276-.171 2.616 2.616 0 0 0-.44-.172 2.297 2.297 0 0 0-.652-.079c-.276 0-.542.048-.8.143-.257.095-.497.23-.718.405-.222.174-.42.384-.595.629a3.445 3.445 0 0 0-.423.81c-.118.327-.18.613-.183.86-.003.25.042.456.137.623a.891.891 0 0 0 .423.378c.187.085.413.128.677.128a1.942 1.942 0 0 0 .798-.176l.48-1.32h-1.077c-.053 0-.082-.032-.087-.099-.005-.065.021-.177.079-.336.03-.082.058-.15.086-.207a.72.72 0 0 1 .082-.133.33.33 0 0 1 .08-.075.153.153 0 0 1 .078-.025h1.922a.25.25 0 0 1 .117.025c.03.016.054.04.07.073a.235.235 0 0 1 .022.116.516.516 0 0 1-.035.156l-.825 2.265a.77.77 0 0 1-.13.231.539.539 0 0 1-.246.156 5.91 5.91 0 0 1-1.354.29 5.195 5.195 0 0 1-.473.022c-.453 0-.837-.065-1.148-.195a1.496 1.496 0 0 1-.706-.567c-.16-.248-.24-.55-.242-.907-.003-.356.079-.76.243-1.212.169-.466.393-.884.668-1.255.275-.371.59-.686.942-.946a4.116 4.116 0 0 1 3.102-.751c.19.033.35.074.484.123.134.047.24.1.32.155a.569.569 0 0 1 .156.146c.025.04.032.098.023.173-.01.075-.042.186-.095.332"/>
        </g>
    </g>
</svg>
