<svg xmlns="http://www.w3.org/2000/svg" width="73" height="32" viewBox="0 0 73 32">
    <g fill="none" fill-rule="evenodd">
        <path fill="#2566AF" fill-rule="nonzero" d="M31.476 23.19h-3.65l2.281-14.018h3.65L31.476 23.19zm-6.72-14.018l-3.48 9.642-.412-2.076-1.227-6.304s-.149-1.262-1.732-1.262h-5.752l-.068.237s1.76.366 3.818 1.603l3.171 12.179h3.803l5.807-14.02h-3.928zM53.463 23.19h3.351L53.892 9.17h-2.934c-1.354 0-1.684 1.045-1.684 1.045L43.83 23.191h3.805l.76-2.083h4.64l.428 2.083zm-4.016-4.96l1.918-5.245 1.078 5.246h-2.996zm-5.331-5.688l.52-3.01s-1.607-.612-3.282-.612c-1.811 0-6.113.792-6.113 4.641 0 3.622 5.049 3.667 5.049 5.57 0 1.902-4.528 1.56-6.023.361l-.542 3.148s1.63.791 4.12.791 6.247-1.29 6.247-4.8c0-3.644-5.093-3.983-5.093-5.568 0-1.585 3.555-1.382 5.117-.521z"/>
        <path fill="#E6A540" d="M20.865 16.738l-1.228-6.304s-.149-1.263-1.732-1.263h-5.752l-.068.238s2.765.573 5.417 2.72c2.536 2.052 3.363 4.609 3.363 4.609z"/>
    </g>
</svg>
